# xmcd CD database file
#
# Track frame offsets:
#	150
#	13111
#	26736
#	38807
#	51574
#	64613
#	77684
#	90929
#	102207
#	113838
#	125647
#	137450
#	148869
#	161487
#	176460
#	188372
#	201694
#	215075
#	229317
#	243954
#	258167
#	269826
#	282486
#	293319
#	305958
#
# Disc length: 4268 seconds
#
# Revision: 1
# Processed by: cddbd v1.5.2PL0 Copyright (c) Steve Scherf et al.
# Submitted via: CDex 1.51
#
DISCID=7510aa19
DTITLE=Dinah Washington - The Essence Of Dinah Washington
DYEAR=2006
DGENRE=Blues
TTITLE0=Evil Gal Blues
TTITLE1=Salty Papa Blues
TTITLE2=It's Too Soon To Know
TTITLE3=Baby Get Lost
TTITLE4=Embraceable You
TTITLE5=When A Woman Loves A Man
TTITLE6=The Man I Love
TTITLE7=I Wish I Knew The Name Of The Boy
TTITLE8=There's Got To Be A Change
TTITLE9=I Love You Yes I Love You
TTITLE10=What Can I Say After I Say I'm Sorry?
TTITLE11=Walkin' And Talkin' (And Cryin' My Blues Away)
TTITLE12=Am I Asking Too Much?
TTITLE13=Blow-Top Blues
TTITLE14=I'm Afraid Of You
TTITLE15=West Side Baby
TTITLE16=Stairway To The Stars
TTITLE17=I Want To Cry
TTITLE18=Resolution Blues
TTITLE19=I Know How To Do It
TTITLE20=It's Funny
TTITLE21=Ain't Misbehavin'
TTITLE22=Good Daddy Blues
TTITLE23=You Satisfy
TTITLE24=Long John Blues
EXTD=YEAR: 2006
EXTT0=
EXTT1=
EXTT2=
EXTT3=
EXTT4=
EXTT5=
EXTT6=
EXTT7=
EXTT8=
EXTT9=
EXTT10=
EXTT11=
EXTT12=
EXTT13=
EXTT14=
EXTT15=
EXTT16=
EXTT17=
EXTT18=
EXTT19=
EXTT20=
EXTT21=
EXTT22=
EXTT23=
EXTT24=
PLAYORDER=
